<svg xmlns="http://www.w3.org/2000/svg" shape-rendering="geometricPrecision" text-rendering="geometricPrecision" image-rendering="optimizeQuality" fill-rule="evenodd" clip-rule="evenodd" viewBox="0 0 512 183.489"><path fill-rule="nonzero" d="M91.743 0h328.514c25.227 0 48.16 10.331 64.782 26.953C501.672 43.585 512 66.534 512 91.743c0 25.202-10.34 48.142-26.97 64.775-16.633 16.632-39.575 26.971-64.773 26.971H91.743c-25.205 0-48.153-10.328-64.788-26.963C10.333 139.905 0 116.972 0 91.747c0-25.238 10.32-48.179 26.943-64.804C43.565 10.32 66.505 0 91.743 0zm58.928 119.323V64.24h24.318c4.003 0 7.288.703 9.859 2.112a15.662 15.662 0 016.079 5.895c1.484 2.52 2.522 5.449 3.114 8.785.593 3.336.889 6.932.889 10.786 0 6.475-.727 11.726-2.187 15.754-1.458 4.029-3.657 6.995-6.597 8.897-2.942 1.903-6.66 2.854-11.157 2.854h-24.318zm14.383-12.898h8.452c1.828 0 3.25-.496 4.263-1.485 1.013-.989 1.73-2.557 2.15-4.707.418-2.151.628-4.955.628-8.415 0-3.261-.159-5.869-.48-7.82-.323-1.953-.791-3.424-1.409-4.413-.617-.987-1.36-1.641-2.225-1.965-.865-.32-1.841-.48-2.927-.48h-8.452v29.285zm52.082 13.343c-1.186 0-2.608-.124-4.263-.369-1.657-.248-3.263-.793-4.818-1.633-1.557-.841-2.856-2.137-3.893-3.891-1.038-1.754-1.558-4.166-1.558-7.229V77.882c0-2.67.421-4.893 1.261-6.674.841-1.779 1.927-3.175 3.263-4.188a12.408 12.408 0 014.446-2.15c1.633-.42 3.214-.63 4.745-.63 4.152 0 7.723.061 10.714.185 2.99.124 5.585.259 7.784.407 2.199.149 4.139.321 5.82.521V77.51h-19.869c-1.234 0-2.175.272-2.816.816-.644.544-.965 1.358-.965 2.447v4.597l19.943.741v11.416l-19.943.741v4.153c0 .889.135 1.619.407 2.185.273.569.655.989 1.151 1.261a3.32 3.32 0 001.63.409h20.462v12.158c-2.126.296-4.548.544-7.265.741-2.718.197-5.486.345-8.304.445-2.818.099-5.461.148-7.932.148zm29.69-.445l6.524-55.083h13.494l11.341 38.698 11.344-38.698h13.345l6.597 55.083h-13.863l-4.226-35.438-6.598 35.438h-13.492l-8.749-35.362-1.853 35.362h-13.864zm90.929.445c-3.904 0-7.327-.383-10.269-1.148-2.94-.768-5.4-2.139-7.375-4.115-1.978-1.977-3.459-4.807-4.449-8.49-.988-3.681-1.482-8.439-1.482-14.27 0-5.833.494-10.59 1.482-14.273.99-3.681 2.471-6.51 4.449-8.487 1.975-1.978 4.435-3.349 7.375-4.115 2.942-.765 6.365-1.15 10.269-1.15s7.326.385 10.268 1.15c2.94.766 5.4 2.137 7.375 4.115 1.978 1.977 3.46 4.806 4.449 8.487.989 3.683 1.482 8.44 1.482 14.273 0 5.831-.493 10.589-1.482 14.27-.989 3.683-2.471 6.513-4.449 8.49-1.975 1.976-4.435 3.347-7.375 4.115-2.942.765-6.364 1.148-10.268 1.148zm0-12.899c1.878 0 3.411-.223 4.597-.668a5.411 5.411 0 002.78-2.298c.666-1.086 1.135-2.619 1.407-4.597.272-1.976.409-4.497.409-7.561 0-3.212-.137-5.807-.409-7.784-.272-1.978-.741-3.498-1.407-4.56a5.091 5.091 0 00-2.78-2.187c-1.186-.396-2.719-.593-4.597-.593-1.829 0-3.349.197-4.559.593-1.212.395-2.151 1.123-2.818 2.187-.666 1.062-1.138 2.582-1.407 4.56-.273 1.977-.41 4.572-.41 7.784 0 3.064.137 5.585.41 7.561.269 1.978.741 3.511 1.407 4.597.667 1.088 1.606 1.853 2.818 2.298 1.21.445 2.73.668 4.559.668zm82.502-93.849H91.743c-21.643 0-41.325 8.86-55.593 23.13-14.27 14.271-23.13 33.954-23.13 55.597 0 21.63 8.873 41.304 23.141 55.572 14.282 14.282 33.971 23.15 55.582 23.15h328.514c21.604 0 41.287-8.879 55.566-23.158 14.279-14.282 23.157-33.96 23.157-55.568 0-21.615-8.869-41.304-23.148-55.584-14.268-14.268-33.943-23.139-55.575-23.139z"/></svg>